HIERARCHY
ROOT Hips
{
	OFFSET -14.64140 90.27770 -84.91600
	CHANNELS 6 Xposition Yposition Zposition Zrotation Xrotation Yrotation
	JOINT Spine
	{
		OFFSET 0.00000 13.20850 -1.60436
		CHANNELS 3 Zrotation Xrotation Yrotation
		JOINT Spine1
		{
			OFFSET 0.00000 8.61716 0.00000
			CHANNELS 3 Zrotation Xrotation Yrotation
			JOINT Spine2
			{
				OFFSET 0.00000 8.61717 0.00000
				CHANNELS 3 Zrotation Xrotation Yrotation
				JOINT Spine3
				{
					OFFSET 0.00000 8.61717 0.00000
					CHANNELS 3 Zrotation Xrotation Yrotation
					JOINT Neck
					{
						OFFSET 0.00000 11.07920 1.10792
						CHANNELS 3 Zrotation Xrotation Yrotation
						JOINT Neck1
						{
							OFFSET 0.00000 7.08032 0.00000
							CHANNELS 3 Zrotation Xrotation Yrotation
							JOINT Head
							{
								OFFSET 0.00000 7.08031 0.00000
								CHANNELS 3 Zrotation Xrotation Yrotation
								End site
								{
									OFFSET 0.00000 0.00000 0.00000
								}
							}
						}
					}
					JOINT RightShoulder
					{
						OFFSET -0.01000 7.91373 5.19711
						CHANNELS 3 Zrotation Xrotation Yrotation
						JOINT RightArm
						{
							OFFSET -18.41580 0.00000 0.00000
							CHANNELS 3 Zrotation Xrotation Yrotation
							JOINT RightForeArm
							{
								OFFSET -29.11090 0.00000 0.00000
								CHANNELS 3 Zrotation Xrotation Yrotation
								JOINT RightHand
								{
									OFFSET -24.65040 0.00000 0.00000
									CHANNELS 3 Zrotation Xrotation Yrotation
									JOINT RightHandThumb1
									{
										OFFSET -5.35114 -0.85590 3.97906
										CHANNELS 3 Zrotation Xrotation Yrotation
										JOINT RightHandThumb2
										{
											OFFSET -4.52789 0.00000 0.00000
											CHANNELS 3 Zrotation Xrotation Yrotation
											JOINT RightHandThumb3
											{
												OFFSET -2.46976 0.00000 0.00000
												CHANNELS 3 Zrotation Xrotation Yrotation
												End site
												{
													OFFSET 0.00000 0.00000 0.00000
												}
											}
										}
									}
									JOINT RightHandIndex1
									{
										OFFSET -14.26970 0.00000 2.88139
										CHANNELS 3 Zrotation Xrotation Yrotation
										JOINT RightHandIndex2
										{
											OFFSET -5.48836 0.00000 0.00000
											CHANNELS 3 Zrotation Xrotation Yrotation
											JOINT RightHandIndex3
											{
												OFFSET -3.01859 0.00000 0.00000
												CHANNELS 3 Zrotation Xrotation Yrotation
												End site
												{
													OFFSET 0.00000 0.00000 0.00000
												}
											}
										}
									}
									JOINT RightHandMiddle1
									{
										OFFSET -14.26970 0.00000 -0.09147
										CHANNELS 3 Zrotation Xrotation Yrotation
										JOINT RightHandMiddle2
										{
											OFFSET -6.17441 0.00000 0.00000
											CHANNELS 3 Zrotation Xrotation Yrotation
											JOINT RightHandMiddle3
											{
												OFFSET -3.56743 0.00000 0.00000
												CHANNELS 3 Zrotation Xrotation Yrotation
												End site
												{
													OFFSET 0.00000 0.00000 0.00000
												}
											}
										}
									}
									JOINT RightHandRing1
									{
										OFFSET -12.69180 0.00000 -3.06433
										CHANNELS 3 Zrotation Xrotation Yrotation
										JOINT RightHandRing2
										{
											OFFSET -5.62556 0.00000 0.00000
											CHANNELS 3 Zrotation Xrotation Yrotation
											JOINT RightHandRing3
											{
												OFFSET -3.56744 0.00000 0.00000
												CHANNELS 3 Zrotation Xrotation Yrotation
												End site
												{
													OFFSET 0.00000 0.00000 0.00000
												}
											}
										}
									}
									JOINT RightHandPinky1
									{
										OFFSET -11.11390 0.00000 -6.03719
										CHANNELS 3 Zrotation Xrotation Yrotation
										JOINT RightHandPinky2
										{
											OFFSET -4.52789 0.00000 0.00000
											CHANNELS 3 Zrotation Xrotation Yrotation
											JOINT RightHandPinky3
											{
												OFFSET -2.46976 0.00000 0.00000
												CHANNELS 3 Zrotation Xrotation Yrotation
												End site
												{
													OFFSET 0.00000 0.00000 0.00000
												}
											}
										}
									}
								}
							}
						}
					}
					JOINT LeftShoulder
					{
						OFFSET 0.01000 7.91373 5.19711
						CHANNELS 3 Zrotation Xrotation Yrotation
						JOINT LeftArm
						{
							OFFSET 18.41580 0.00000 0.00000
							CHANNELS 3 Zrotation Xrotation Yrotation
							JOINT LeftForeArm
							{
								OFFSET 29.11090 0.00000 0.00000
								CHANNELS 3 Zrotation Xrotation Yrotation
								JOINT LeftHand
								{
									OFFSET 24.65040 0.00000 0.00000
									CHANNELS 3 Zrotation Xrotation Yrotation
									JOINT LeftHandThumb1
									{
										OFFSET 5.35114 -0.85590 3.97906
										CHANNELS 3 Zrotation Xrotation Yrotation
										JOINT LeftHandThumb2
										{
											OFFSET 4.52789 0.00000 0.00000
											CHANNELS 3 Zrotation Xrotation Yrotation
											JOINT LeftHandThumb3
											{
												OFFSET 2.46977 0.00000 0.00000
												CHANNELS 3 Zrotation Xrotation Yrotation
												End site
												{
													OFFSET 0.00000 0.00000 0.00000
												}
											}
										}
									}
									JOINT LeftHandIndex1
									{
										OFFSET 14.26970 0.00000 2.88139
										CHANNELS 3 Zrotation Xrotation Yrotation
										JOINT LeftHandIndex2
										{
											OFFSET 5.48836 0.00000 0.00000
											CHANNELS 3 Zrotation Xrotation Yrotation
											JOINT LeftHandIndex3
											{
												OFFSET 3.01859 0.00000 0.00000
												CHANNELS 3 Zrotation Xrotation Yrotation
												End site
												{
													OFFSET 0.00000 0.00000 0.00000
												}
											}
										}
									}
									JOINT LeftHandMiddle1
									{
										OFFSET 14.26970 0.00000 -0.09147
										CHANNELS 3 Zrotation Xrotation Yrotation
										JOINT LeftHandMiddle2
										{
											OFFSET 6.17440 0.00000 0.00000
											CHANNELS 3 Zrotation Xrotation Yrotation
											JOINT LeftHandMiddle3
											{
												OFFSET 3.56744 0.00000 0.00000
												CHANNELS 3 Zrotation Xrotation Yrotation
												End site
												{
													OFFSET 0.00000 0.00000 0.00000
												}
											}
										}
									}
									JOINT LeftHandRing1
									{
										OFFSET 12.69180 0.00000 -3.06433
										CHANNELS 3 Zrotation Xrotation Yrotation
										JOINT LeftHandRing2
										{
											OFFSET 5.62556 0.00000 0.00000
											CHANNELS 3 Zrotation Xrotation Yrotation
											JOINT LeftHandRing3
											{
												OFFSET 3.56744 0.00000 0.00000
												CHANNELS 3 Zrotation Xrotation Yrotation
												End site
												{
													OFFSET 0.00000 0.00000 0.00000
												}
											}
										}
									}
									JOINT LeftHandPinky1
									{
										OFFSET 11.11390 0.00000 -6.03719
										CHANNELS 3 Zrotation Xrotation Yrotation
										JOINT LeftHandPinky2
										{
											OFFSET 4.52789 0.00000 0.00000
											CHANNELS 3 Zrotation Xrotation Yrotation
											JOINT LeftHandPinky3
											{
												OFFSET 2.46976 0.00000 0.00000
												CHANNELS 3 Zrotation Xrotation Yrotation
												End site
												{
													OFFSET 0.00000 0.00000 0.00000
												}
											}
										}
									}
								}
							}
						}
					}
					JOINT pCube4
					{
						OFFSET 0.00000 10.91090 1.10792
						CHANNELS 3 Zrotation Xrotation Yrotation
						End site
						{
							OFFSET 0.00000 0.00000 0.00000
						}
					}
				}
			}
		}
	}
	JOINT RightUpLeg
	{
		OFFSET -9.98441 0.00000 0.00000
		CHANNELS 3 Zrotation Xrotation Yrotation
		JOINT RightLeg
		{
			OFFSET 0.00000 -42.11790 0.00000
			CHANNELS 3 Zrotation Xrotation Yrotation
			JOINT RightFoot
			{
				OFFSET 0.00000 -45.00020 -0.00001
				CHANNELS 3 Zrotation Xrotation Yrotation
				JOINT RightForeFoot
				{
					OFFSET 0.00000 -3.74820 0.00000
					CHANNELS 3 Zrotation Xrotation Yrotation
					JOINT RightToeBase
					{
						OFFSET 0.00000 0.06325 14.43120
						CHANNELS 3 Zrotation Xrotation Yrotation
						End site
						{
							OFFSET 0.00000 0.00000 0.00000
						}
					}
				}
			}
		}
	}
	JOINT LeftUpLeg
	{
		OFFSET 9.98441 0.00000 0.00000
		CHANNELS 3 Zrotation Xrotation Yrotation
		JOINT LeftLeg
		{
			OFFSET 0.00000 -42.11800 0.00000
			CHANNELS 3 Zrotation Xrotation Yrotation
			JOINT LeftFoot
			{
				OFFSET 0.00000 -45.00070 0.00000
				CHANNELS 3 Zrotation Xrotation Yrotation
				JOINT LeftForeFoot
				{
					OFFSET 0.00000 -3.74824 0.00000
					CHANNELS 3 Zrotation Xrotation Yrotation
					JOINT LeftToeBase
					{
						OFFSET 0.00000 0.06325 14.43110
						CHANNELS 3 Zrotation Xrotation Yrotation
						End site
						{
							OFFSET 0.00000 0.00000 0.00000
						}
					}
				}
			}
		}
	}
}
MOTION
Frames: 4
Frame Time: 0.050000
0.025514260772517228 0.03552201693591048 -0.012621616829048072 -0.012908471549047127 0.030693259925223856 -0.023409267024297988 1.9989804466498213 4.556515166983599 -1.4462415709139627 -0.594334261937223 3.8638380386153983 0.34916058231868385 -0.7105562428434625 -1.324049129107153 1.4177526658138302 -0.6596333627548315 -0.20834201662397062 -0.2919069775978105 0.027787280431731856 13.942312220199183 -1.2476734909960723 0.08875572183482434 -0.5985914050548227 -4.524115572231134 0.6767072306438652 -16.723510782490404 -0.42294807753113084 -7.356581677385144 2.838915166001821 -14.860526870050732 74.5534007485407 10.988636305792364 19.642083967852255 6.882438671799535 -3.9197415017936623 86.7799856275094 21.63466249677882 -0.610037205010899 -4.56825960111327 4.50952524102202 -0.13905407511858675 -1.604413313158421 -0.017647216370266207 -0.009271305084212561 -56.216449839967694 0.049882723388248354 -0.0005037086532332724 -56.25340739073669 -38.81809041721464 -0.004820760275672481 0.031017313212192723 -0.0005221001965168696 0.021053560812531274 -0.008613441108641883 0.014417756649751768 -0.0005281618417674883 -0.046984523923291305 -36.73737530256828 0.029348300222958285 -0.006907095033947566 -0.02983449984432284 -0.008897633909505659 -0.019112214827781398 -0.03955024243125042 -0.009413532470914079 0.020002693048989627 -19.73330091864958 0.0035191669886506295 0.013999465562587505 -0.044998924446736796 0.0027248512765888347 -0.0325867825840521 -0.026087987352008336 -0.024490679025338382 -0.03877398417947272 24.096183810719772 -0.00917292607246009 -0.014205447394307876 28.885713354199755 -0.006399261538972387 0.03416083238033025 28.854746290463712 0.014452453174131956 -0.02484149822119919 7.447522421645172 1.9766225582538992 13.66996771838491 -72.30090970917306 21.507530198613622 -14.96288066431362 -7.382585293919246 1.8208163306308367 -72.1162664649242 -20.71236362478193 4.088093736443833 -3.1387667099199685 -0.46265555477625414 0.029504634690935692 -8.170678400871598 -0.01936874216105522 0.03883906075869447 44.53004629115251 -0.0019391492327995702 -0.04688090416314453 44.53742916380151 12.434037500606703 -0.017968589607309526 0.019348058214362376 0.006472979889393131 0.005939462243195067 -0.03282863723663568 0.03374122522237986 0.014077582187187505 0.009940745481600342 11.122278069383114 0.017053887680545225 0.013067818783068718 -0.01132399798715988 0.0162018187536266 0.036000153625488675 -0.04247409815666244 -0.025501986220911946 0.016712175953762884 4.8112457572841505 -0.04091877497331882 0.04387356837362165 -0.019046058330772074 -0.02757466630968966 0.03218447558004205 -0.009662100205208204 0.04373603155965896 0.038223406390478304 -5.585495656710514 -0.04123866238173736 -0.012218610069127351 -6.704827588326114 0.04582066504215054 -0.004692034790065576 -6.719452307852286 -0.02546817187575542 -0.04204615652959454 -0.0163814102418134 -0.03754011330993385 -0.010961215462848421 8.028213442951724 3.504003995681626 -19.20819287418929 0.01841970364768498 10.34954337587334 0.02312264630735695 -5.586528701976543 -15.688284703556944 3.1829407116788206 -0.04963820398110719 -0.04344024930915894 -0.0029873767777015598 -0.012153083275695966 4.717045193114018 0.02209905813689628 12.452321658746357 -8.203101506541207 6.87435170901666 0.030891272721604385 46.37634439294423 0.03854584498080036 -4.280922659282765 -14.712079261376337 -3.844483229203425 -0.0221777800590356 0.0010767917248524126 -0.030355043217945517 0.0492899038952601 -10.78546359102916 -0.02851148332056938 
-0.03166548528031886 -0.013276294079514181 -0.004737586058902549 0.009560608827793748 -0.02482400342014017 -0.006408972221821731 2.037411801399463 4.602875486018101 -1.490728413513125 -0.6727733761598848 3.884370892701796 0.3452246791015047 -0.7544094284446988 -1.2370299640710127 1.4195321237456011 -0.612264278004636 -0.14398012097166907 -0.29686671293978284 -0.00851268445350365 13.800221563277162 -1.4059150561739147 0.11794962951628388 -0.5137341794166833 -5.003414920154019 0.6392124016798995 -16.564157824952616 -0.3756019296070227 -6.984586382686521 2.725431136455407 -14.910705990863347 73.83929033514029 12.241261717070984 18.12975826507103 5.966025063866509 -3.9270943158693896 87.52876501585385 21.68880837354779 -0.605248214970084 -4.783366996762251 4.491337891678963 -0.13426469126204973 -1.6349732250053044 0.03884020033944355 0.028466766306407734 -56.2214766991348 -0.0018946680598084808 0.022847568742659544 -56.25989978258471 -38.78456300051699 -0.006077564179128044 -0.0451181055116655 0.012257045455397788 -0.02210830590489012 0.03916071872807941 0.003706040917660173 -0.018140016802925304 0.02980982015953131 -36.67900616287498 -0.036957994970573775 0.004846457167817383 0.019681033695838943 -0.04209519049706781 0.015379403266342951 -0.004335553424031569 -0.024629852890190013 0.047180838197231956 -19.744152957888158 -0.00936281156553618 0.00018341185065872323 0.004093780794444847 -0.005703525544096033 0.03671850291215905 0.006815677022637522 0.04055268881696816 -0.044018210317365525 24.039156135074283 -0.011475280688410824 0.012693051934845205 28.881348657964622 0.021009076253690123 0.0050262182000678605 28.850337657769693 -0.0178349086548759 -0.0229086631880928 6.913480125716703 1.856745072954295 13.776063152196437 -72.05626145524276 22.0800678449274 -13.813319681231107 -6.816451078640105 2.5188897478922145 -71.31899841285704 -20.83199051493788 4.3355352236761355 -3.1905562900382085 -0.4723020427590498 0.028342470494297473 -8.170051476257271 0.014663796978880194 0.032408577614478816 44.559586609856495 -0.001614526989107725 0.022773059072129394 44.58468860192103 12.431911847591376 -0.0014326189758497574 -0.04732304243529146 0.010231710367782304 -0.014272290444326456 0.011430689114341279 -0.020869109221939314 -0.03708407936526319 0.04430860312586287 11.104562499256634 -0.005443816915683511 0.020324647879095794 -0.001076930206375225 -0.03220651011598707 -0.008501240906578002 -0.0224103622548047 0.03869689829571702 -0.028602342219992905 4.749480326497674 0.027183605494757034 -0.01907774507376005 0.0006457842767808222 0.016630511482813984 0.004631778473970612 0.012782570141265926 -0.03888926387818752 0.002721171695501298 -5.635378430823034 0.010141698200917223 0.03588772947923986 -6.720841934691751 0.02261609720329737 0.026392461214081505 -6.702992029195004 -0.005126734611925542 -0.029858948431937798 0.01619457425387263 -0.03185934910855751 -0.014622583202228465 8.077410210249532 3.521685547939927 -19.232999471083453 -0.00851456729222326 10.376810467961533 -0.004678547075921843 -5.632539303655958 -15.628465300450255 3.1808866561839695 0.02845020456924278 -0.008508597861185681 0.04269441309925145 0.009772481115954967 4.735983643898315 0.02490972437861063 12.45281599815382 -8.223169762263424 6.838289734835069 0.02065053403858594 46.351321874839755 0.04001833196454529 -4.364480847345903 -14.727966534368877 -3.864624444107799 -0.016601178620456656 0.01013651748696008 -0.014246179377103894 -0.019848194983050283 -10.761044312313027 0.002238675719481179 
0.04866232732677576 -0.013639377203730317 0.04894484517336704 -0.017576303722914327 0.00011289956548248591 0.02058929648746939 2.1665915971540146 4.633427985203248 -1.4431091388445758 -0.6485540084356847 3.7977439709814607 0.36732985880061225 -0.6833027816434458 -1.2120247498270385 1.4097139458570662 -0.4764356393410557 -0.1517346286811585 -0.26821725340785063 0.07773323134555275 13.680594253014016 -1.5168374239994564 0.0750529390019907 -0.4252788781055715 -5.311405562940575 0.7403800321303706 -16.405319141746002 -0.4354327837140165 -6.6201094342668965 2.618603192626361 -15.056786280877093 73.29526924799748 13.33895874989167 15.939400758491892 5.016617399495692 -3.0265704746643833 85.95069344622452 22.33429399044086 -0.5805246124664848 -4.867665615602655 4.562160446667113 -0.09111119737948332 -1.6355062860359642 -0.02305010487467871 0.009586457023652005 -56.24619391283719 0.016378852154836556 -0.0498868896285492 -56.22046461246636 -38.76611864841097 -0.0061236245157102525 -0.026260321864369586 0.007944536780143596 0.016443118266336234 0.027287385645528947 0.031974370455118056 0.02864602736808605 -0.0024363548674939547 -36.74177803034242 0.008473604938556747 -0.021951753920868355 -0.030416066504779665 -0.015382786103919986 -0.00970907001077318 0.03366460626395814 0.046550862328353794 -0.01792904175342398 -19.734829155513527 0.022031512141422117 -0.01056757208824119 0.04305403445475935 0.028993608986509906 -0.027265114363120582 -0.012754077412807789 0.03233623952602633 0.005110389345268979 24.102122336048325 0.012756120252460014 0.015606189944669693 28.835979522270762 -0.02247740041638238 -0.03159958686224874 28.914639277421415 -0.02252232351131001 -0.03825756600468219 6.534563858106274 1.8288629930750568 13.808927267123543 -71.73973537478042 22.36971315227579 -12.684495736263388 -5.544923809997372 3.208352885376931 -69.32622040542492 -21.026736849262324 4.728128972363182 -3.3865123055583237 -0.4483935532944276 0.09487872932128973 -8.12616210695211 -0.03964784339204963 0.04794168701583825 44.53679828327495 -0.027756228560045965 0.023375362912532435 44.5941927570796 12.44606867279438 0.019736775126800048 0.012054458649226954 -0.017753216477908545 -0.00025144602481671683 -0.04013980954347329 -0.014404437744154546 0.03486061394164833 0.03375249912646339 11.09680563121923 -0.04991551896197736 -0.018740472303500903 -0.03893084465397219 -0.010982257407017769 -0.021100410370357835 0.043481587748356296 -0.014508918936964071 -0.027185076153689487 4.80039304193536 -0.006813190808157018 0.036222017844598414 0.026915198311145472 -0.032822603218163576 -0.03454791778731256 0.005645902719993895 -0.03024796683322653 0.02434352783750563 -5.576017292796697 -0.015149603776336411 -0.003744169577658776 -6.732843340196177 0.025991608980897224 0.014927569519603771 -6.764954730036713 0.006519752854296926 -0.04444088657621461 0.024507037070138155 -0.0008543113021549016 0.02911529465786324 8.041059738158074 3.490584489890848 -19.236827642696124 0.042846662915176276 10.395514871464718 -0.029414123973846105 -5.615734783699514 -15.612493433183332 3.1451755537190995 0.011171777107671168 0.0453063055523163 0.04797435707264493 0.026057280012553304 4.737137055870405 0.012705040251251666 12.438244790301795 -8.24034273574585 6.903558885719057 0.02605936125789186 46.37631112250952 -0.019416108691103807 -4.299149141701649 -14.796059790032821 -3.788644421273055 -0.0020091244146779067 -0.03956519629799273 0.02633944463825631 -0.013722440368421946 -10.766818918912898 -0.017159899847806703 
-0.0188875984518495 0.01635823327133478 0.02180281160321471 -0.004475283574517663 -0.0007348908046110587 -0.04537856025111919 2.134746440051205 4.656827608597077 -1.465227795499294 -0.5785655013233089 3.8745209731230363 0.3515934960664117 -0.6553734492269225 -1.1416206460435274 1.331159757880068 -0.4509211465090217 -0.16099188290304778 -0.3421715043209503 0.11294020135317075 13.52585726232811 -1.60158417114661 0.17004025166619555 -0.36085056967348983 -5.528428532674293 0.7960251890579627 -16.19934546093386 -0.47234693246017073 -6.111014607370226 2.467236816566545 -15.125269259540588 72.82578310340395 14.570951293295394 13.2888717287058 4.079898143859371 -1.5752723304733138 82.9175156950755 23.499239462739386 -0.5521706605182666 -5.0344910740584625 4.546255657890135 -0.16436647728502443 -1.6228192609840608 -0.0039083825618321365 0.04596237246229409 -56.22426495506035 -0.010971704309374457 0.009302123693767527 -56.203408597391274 -38.802530330460755 -0.006245694646335291 -0.021881849383553323 0.04690697150589431 -0.0019417190441872066 0.01352672887555877 -0.0447166028713162 -0.041459445345064176 -0.025304222807425676 -36.71866453677372 0.014404467891396173 -0.03436926804580598 -0.012055931979206787 0.02316230994603523 -0.015440807312122102 0.02569935290930573 -0.021460020377727887 -0.030171873224075794 -19.722398825263507 0.022114271759067022 0.007704607199955763 0.019507856160777826 0.012858742948748522 0.014894376130907579 0.04058439835729847 -0.022340273607468125 -0.0069385693196194025 24.100528880259915 0.03203522406657377 0.008789417887200331 28.863280751755173 0.0033394204094717704 -0.030209134929313926 28.81989468936836 0.021790571146628128 -0.01732722185129127 6.139291020383845 1.754121540670412 13.854993420629818 -71.4836093214032 22.605622690937476 -11.68674355462654 -4.1695766981903235 3.7621967817020003 -67.54646277355224 -21.268318502976342 5.198002764983843 -3.58979501415562 -0.439052472011117 0.07901494467854711 -8.080564194890497 0.006236408368297596 0.006127700209609956 44.581845686813686 -0.043037793197666915 0.047702220938962 44.57906654418448 12.507569647066878 0.007259626493238722 -0.04997748886566745 -0.028914996520574367 -0.0008086527049347661 0.001599783779678917 -0.014039057357525116 -0.012148970088991237 0.04424406736433715 11.113988372991482 0.005475456735130366 -4.8558393177057594e-05 -0.02157646149765702 -0.04510669370407207 -0.023683723885010166 0.036388278797542126 0.0005976985043855535 -0.03329348530144898 4.816431638424745 0.038460402387153224 0.038453933310733976 -0.016534256762814874 0.015688088369731405 0.017099122528798555 0.01665852424314158 -0.022318087270907318 0.00043936152721410433 -5.600220876020224 -0.005815415747688351 -0.015263429213167055 -6.725973496857388 -0.007015718325940465 0.0022574359043590264 -6.7076052346306545 -0.04347463900209047 -0.012513629950558255 -0.04420025798473706 0.006499343623245647 -0.03148364602620193 8.047584494317176 3.469345203980247 -19.230329709168657 -0.01668402964700965 10.360537022287046 -0.021137921078832795 -5.668562767399824 -15.682784603955447 3.2335368722226323 0.005115184648720563 -0.044078858205018584 0.014537198581075342 0.03440988372165452 4.733269042691438 0.02254014100326835 12.470543991057141 -8.238664475815353 6.86029823190917 -0.025734880429387316 46.36543642063865 -0.030435829766413118 -4.3341684289885745 -14.74637490048175 -3.8349009484944814 -0.03825967446606941 0.0002782572539974774 -0.040533524084528136 -0.004899480313007576 -10.75145863483153 0.04163357180194654 
